<?xml version="1.0" encoding="UTF-8" standalone="no"?>
<!DOCTYPE svg PUBLIC "-//W3C//DTD SVG 1.1//EN"
 "http://www.w3.org/Graphics/SVG/1.1/DTD/svg11.dtd">
<!-- Generated by graphviz version 2.32.0 (20131110.2140)
 -->
<!-- Title: cityhash_test.test; 4295 samples Pages: 1 -->
<svg width="100%" height="100%"
  xmlns="http://www.w3.org/2000/svg" xmlns:xlink="http://www.w3.org/1999/xlink">
<script type="text/ecmascript"><![CDATA[
// SVGPan
// http://www.cyberz.org/blog/2009/12/08/svgpan-a-javascript-svg-panzoomdrag-library/
// Local modification: if(true || ...) below to force panning, never moving.
// Local modification: add clamping to fix bug in handleMouseWheel.

/**
 *  SVGPan library 1.2
 * ====================
 *
 * Given an unique existing element with id "viewport", including the
 * the library into any SVG adds the following capabilities:
 *
 *  - Mouse panning
 *  - Mouse zooming (using the wheel)
 *  - Object dargging
 *
 * Known issues:
 *
 *  - Zooming (while panning) on Safari has still some issues
 *
 * Releases:
 *
 * 1.2, Sat Mar 20 08:42:50 GMT 2010, Zeng Xiaohui
 *	Fixed a bug with browser mouse handler interaction
 *
 * 1.1, Wed Feb  3 17:39:33 GMT 2010, Zeng Xiaohui
 *	Updated the zoom code to support the mouse wheel on Safari/Chrome
 *
 * 1.0, Andrea Leofreddi
 *	First release
 *
 * This code is licensed under the following BSD license:
 *
 * Copyright 2009-2010 Andrea Leofreddi <a.leofreddi@itcharm.com>. All rights reserved.
 *
 * Redistribution and use in source and binary forms, with or without modification, are
 * permitted provided that the following conditions are met:
 *
 *    1. Redistributions of source code must retain the above copyright notice, this list of
 *       conditions and the following disclaimer.
 *
 *    2. Redistributions in binary form must reproduce the above copyright notice, this list
 *       of conditions and the following disclaimer in the documentation and/or other materials
 *       provided with the distribution.
 *
 * THIS SOFTWARE IS PROVIDED BY Andrea Leofreddi ``AS IS'' AND ANY EXPRESS OR IMPLIED
 * WARRANTIES, INCLUDING, BUT NOT LIMITED TO, THE IMPLIED WARRANTIES OF MERCHANTABILITY AND
 * FITNESS FOR A PARTICULAR PURPOSE ARE DISCLAIMED. IN NO EVENT SHALL Andrea Leofreddi OR
 * CONTRIBUTORS BE LIABLE FOR ANY DIRECT, INDIRECT, INCIDENTAL, SPECIAL, EXEMPLARY, OR
 * CONSEQUENTIAL DAMAGES (INCLUDING, BUT NOT LIMITED TO, PROCUREMENT OF SUBSTITUTE GOODS OR
 * SERVICES; LOSS OF USE, DATA, OR PROFITS; OR BUSINESS INTERRUPTION) HOWEVER CAUSED AND ON
 * ANY THEORY OF LIABILITY, WHETHER IN CONTRACT, STRICT LIABILITY, OR TORT (INCLUDING
 * NEGLIGENCE OR OTHERWISE) ARISING IN ANY WAY OUT OF THE USE OF THIS SOFTWARE, EVEN IF
 * ADVISED OF THE POSSIBILITY OF SUCH DAMAGE.
 *
 * The views and conclusions contained in the software and documentation are those of the
 * authors and should not be interpreted as representing official policies, either expressed
 * or implied, of Andrea Leofreddi.
 */

var root = document.documentElement;

var state = 'none', stateTarget, stateOrigin, stateTf;

setupHandlers(root);

/**
 * Register handlers
 */
function setupHandlers(root){
	setAttributes(root, {
		"onmouseup" : "add(evt)",
		"onmousedown" : "handleMouseDown(evt)",
		"onmousemove" : "handleMouseMove(evt)",
		"onmouseup" : "handleMouseUp(evt)",
		//"onmouseout" : "handleMouseUp(evt)", // Decomment this to stop the pan functionality when dragging out of the SVG element
	});

	if(navigator.userAgent.toLowerCase().indexOf('webkit') >= 0)
		window.addEventListener('mousewheel', handleMouseWheel, false); // Chrome/Safari
	else
		window.addEventListener('DOMMouseScroll', handleMouseWheel, false); // Others

	var g = svgDoc.getElementById("svg");
	g.width = "100%";
	g.height = "100%";
}

/**
 * Instance an SVGPoint object with given event coordinates.
 */
function getEventPoint(evt) {
	var p = root.createSVGPoint();

	p.x = evt.clientX;
	p.y = evt.clientY;

	return p;
}

/**
 * Sets the current transform matrix of an element.
 */
function setCTM(element, matrix) {
	var s = "matrix(" + matrix.a + "," + matrix.b + "," + matrix.c + "," + matrix.d + "," + matrix.e + "," + matrix.f + ")";

	element.setAttribute("transform", s);
}

/**
 * Dumps a matrix to a string (useful for debug).
 */
function dumpMatrix(matrix) {
	var s = "[ " + matrix.a + ", " + matrix.c + ", " + matrix.e + "\n  " + matrix.b + ", " + matrix.d + ", " + matrix.f + "\n  0, 0, 1 ]";

	return s;
}

/**
 * Sets attributes of an element.
 */
function setAttributes(element, attributes){
	for (i in attributes)
		element.setAttributeNS(null, i, attributes[i]);
}

/**
 * Handle mouse move event.
 */
function handleMouseWheel(evt) {
	if(evt.preventDefault)
		evt.preventDefault();

	evt.returnValue = false;

	var svgDoc = evt.target.ownerDocument;

	var delta;

	if(evt.wheelDelta)
		delta = evt.wheelDelta / 3600; // Chrome/Safari
	else
		delta = evt.detail / -90; // Mozilla

	var z = 1 + delta; // Zoom factor: 0.9/1.1

	// Clamp to reasonable values.
	// The 0.1 check is important because
	// a very large scroll can turn into a
	// negative z, which rotates the image 180 degrees.
	if(z < 0.1)
		z = 0.1;
	if(z > 10.0)
		z = 10.0;

	var g = svgDoc.getElementById("viewport");

	var p = getEventPoint(evt);

	p = p.matrixTransform(g.getCTM().inverse());

	// Compute new scale matrix in current mouse position
	var k = root.createSVGMatrix().translate(p.x, p.y).scale(z).translate(-p.x, -p.y);

        setCTM(g, g.getCTM().multiply(k));

	stateTf = stateTf.multiply(k.inverse());
}

/**
 * Handle mouse move event.
 */
function handleMouseMove(evt) {
	if(evt.preventDefault)
		evt.preventDefault();

	evt.returnValue = false;

	var svgDoc = evt.target.ownerDocument;

	var g = svgDoc.getElementById("viewport");

	if(state == 'pan') {
		// Pan mode
		var p = getEventPoint(evt).matrixTransform(stateTf);

		setCTM(g, stateTf.inverse().translate(p.x - stateOrigin.x, p.y - stateOrigin.y));
	} else if(state == 'move') {
		// Move mode
		var p = getEventPoint(evt).matrixTransform(g.getCTM().inverse());

		setCTM(stateTarget, root.createSVGMatrix().translate(p.x - stateOrigin.x, p.y - stateOrigin.y).multiply(g.getCTM().inverse()).multiply(stateTarget.getCTM()));

		stateOrigin = p;
	}
}

/**
 * Handle click event.
 */
function handleMouseDown(evt) {
	if(evt.preventDefault)
		evt.preventDefault();

	evt.returnValue = false;

	var svgDoc = evt.target.ownerDocument;

	var g = svgDoc.getElementById("viewport");

	if(true || evt.target.tagName == "svg") {
		// Pan mode
		state = 'pan';

		stateTf = g.getCTM().inverse();

		stateOrigin = getEventPoint(evt).matrixTransform(stateTf);
	} else {
		// Move mode
		state = 'move';

		stateTarget = evt.target;

		stateTf = g.getCTM().inverse();

		stateOrigin = getEventPoint(evt).matrixTransform(stateTf);
	}
}

/**
 * Handle mouse button release event.
 */
function handleMouseUp(evt) {
	if(evt.preventDefault)
		evt.preventDefault();

	evt.returnValue = false;

	var svgDoc = evt.target.ownerDocument;

	if(state == 'pan' || state == 'move') {
		// Quit pan mode
		state = '';
	}
}

]]></script>
<g id="viewport" transform="translate(0,0)">
<g id="viewport" class="graph" transform="scale(1 1) rotate(0) translate(4 2328)">
<title>cityhash_test.test; 4295 samples</title>
<polygon fill="white" stroke="white" points="-4,5 -4,-2328 1035,-2328 1035,5 -4,5"/>
<!-- Legend -->
<g id="node1" class="node"><title>Legend</title>
<text text-anchor="start" x="7.49805" y="-2296" font-family="Times,serif" font-size="24.00">cityhash_test.test</text>
<text text-anchor="start" x="7.49805" y="-2267.2" font-family="Times,serif" font-size="24.00">Total samples: 4295</text>
<text text-anchor="start" x="7.49805" y="-2238.4" font-family="Times,serif" font-size="24.00">Focusing on: 4295</text>
<text text-anchor="start" x="7.49805" y="-2209.6" font-family="Times,serif" font-size="24.00">Dropped nodes with &lt;= 21 abs(samples)</text>
<text text-anchor="start" x="7.49805" y="-2180.8" font-family="Times,serif" font-size="24.00">Dropped edges with &lt;= 4 samples</text>
</g>
<!-- N1 -->
<g id="node2" class="node"><title>N1</title>
<polygon fill="none" stroke="black" points="553.543,-2025.3 360.457,-2025.3 360.457,-1988.7 553.543,-1988.7 553.543,-2025.3"/>
<text text-anchor="middle" x="457" y="-2013.4" font-family="Times,serif" font-size="8.00">_/Users/jian/Projects/cityhash_test.TestLatencyIntegers</text>
<text text-anchor="end" x="545.695" y="-2003.8" font-family="Times,serif" font-size="8.00">0 (0.0%)</text>
<text text-anchor="end" x="545.695" y="-1994.2" font-family="Times,serif" font-size="8.00">of 4268 (99.4%)</text>
</g>
<!-- N2 -->
<g id="node3" class="node"><title>N2</title>
<polygon fill="none" stroke="black" points="535.148,-1933.3 378.852,-1933.3 378.852,-1896.7 535.148,-1896.7 535.148,-1933.3"/>
<text text-anchor="middle" x="457" y="-1921.4" font-family="Times,serif" font-size="8.00">github.com/reducedb/cityhash.CityHash128</text>
<text text-anchor="end" x="527.432" y="-1911.8" font-family="Times,serif" font-size="8.00">0 (0.0%)</text>
<text text-anchor="end" x="527.432" y="-1902.2" font-family="Times,serif" font-size="8.00">of 4268 (99.4%)</text>
</g>
<!-- N1&#45;&gt;N2 -->
<g id="edge11" class="edge"><title>N1&#45;&gt;N2</title>
<path fill="none" stroke="black" stroke-width="2" d="M457,-1988.65C457,-1975.91 457,-1958.33 457,-1943.67"/>
<polygon fill="black" stroke="black" points="460.5,-1943.61 457,-1933.61 453.5,-1943.61 460.5,-1943.61"/>
<text text-anchor="middle" x="471" y="-1955.4" font-family="Times,serif" font-size="14.00">4268</text>
</g>
<!-- N3 -->
<g id="node4" class="node"><title>N3</title>
<polygon fill="none" stroke="black" points="582.359,-1841.74 331.641,-1841.74 331.641,-1794.26 582.359,-1794.26 582.359,-1841.74"/>
<text text-anchor="middle" x="457" y="-1826.72" font-family="Times,serif" font-size="10.90">github.com/reducedb/cityhash.CityHash128WithSeed</text>
<text text-anchor="end" x="574.239" y="-1813.64" font-family="Times,serif" font-size="10.90">14 (0.3%)</text>
<text text-anchor="end" x="574.239" y="-1800.56" font-family="Times,serif" font-size="10.90">of 4268 (99.4%)</text>
</g>
<!-- N2&#45;&gt;N3 -->
<g id="edge29" class="edge"><title>N2&#45;&gt;N3</title>
<path fill="none" stroke="black" stroke-width="2" d="M457,-1896.58C457,-1884.16 457,-1867.09 457,-1852.12"/>
<polygon fill="black" stroke="black" points="460.5,-1851.69 457,-1841.69 453.5,-1851.69 460.5,-1851.69"/>
<text text-anchor="middle" x="471" y="-1863.4" font-family="Times,serif" font-size="14.00">4268</text>
</g>
<!-- N6 -->
<g id="node7" class="node"><title>N6</title>
<polygon fill="none" stroke="black" points="546.363,-1644.16 367.637,-1644.16 367.637,-1597.84 546.363,-1597.84 546.363,-1644.16"/>
<text text-anchor="middle" x="457" y="-1629.48" font-family="Times,serif" font-size="10.60">github.com/reducedb/cityhash.fetch64</text>
<text text-anchor="end" x="538.242" y="-1616.76" font-family="Times,serif" font-size="10.60">12 (0.3%)</text>
<text text-anchor="end" x="538.242" y="-1604.04" font-family="Times,serif" font-size="10.60">of 4251 (99.0%)</text>
</g>
<!-- N3&#45;&gt;N6 -->
<g id="edge38" class="edge"><title>N3&#45;&gt;N6</title>
<path fill="none" stroke="black" stroke-width="2" d="M457,-1794.25C457,-1759.74 457,-1694 457,-1654.47"/>
<polygon fill="black" stroke="black" points="460.5,-1654.31 457,-1644.31 453.5,-1654.31 460.5,-1654.31"/>
<text text-anchor="middle" x="471" y="-1713.4" font-family="Times,serif" font-size="14.00">3247</text>
</g>
<!-- N16 -->
<g id="node17" class="node"><title>N16</title>
<polygon fill="none" stroke="black" points="740.141,-1739.26 503.859,-1739.26 503.859,-1698.74 740.141,-1698.74 740.141,-1739.26"/>
<text text-anchor="middle" x="622" y="-1726.28" font-family="Times,serif" font-size="9.10">github.com/reducedb/cityhash.weakHashLen32WithSeeds_3</text>
<text text-anchor="end" x="732.76" y="-1715.36" font-family="Times,serif" font-size="9.10">2 (0.0%)</text>
<text text-anchor="end" x="732.76" y="-1704.44" font-family="Times,serif" font-size="9.10">of 1008 (23.5%)</text>
</g>
<!-- N3&#45;&gt;N16 -->
<g id="edge20" class="edge"><title>N3&#45;&gt;N16</title>
<path fill="none" stroke="black" stroke-width="1.40675" d="M495.685,-1794.26C521.077,-1779.33 554.268,-1759.82 580.255,-1744.54"/>
<polygon fill="black" stroke="black" points="582.275,-1747.41 589.122,-1739.33 578.728,-1741.38 582.275,-1747.41"/>
<text text-anchor="middle" x="568" y="-1761.4" font-family="Times,serif" font-size="14.00">1007</text>
</g>
<!-- N4 -->
<g id="node5" class="node"><title>N4</title>
<polygon fill="none" stroke="black" points="490.994,-2266.3 423.006,-2266.3 423.006,-2229.7 490.994,-2229.7 490.994,-2266.3"/>
<text text-anchor="middle" x="457" y="-2254.4" font-family="Times,serif" font-size="8.00">gosched0</text>
<text text-anchor="end" x="483.328" y="-2244.8" font-family="Times,serif" font-size="8.00">0 (0.0%)</text>
<text text-anchor="end" x="483.328" y="-2235.2" font-family="Times,serif" font-size="8.00">of 4268 (99.4%)</text>
</g>
<!-- N5 -->
<g id="node6" class="node"><title>N5</title>
<polygon fill="none" stroke="black" points="490.994,-2117.3 423.006,-2117.3 423.006,-2080.7 490.994,-2080.7 490.994,-2117.3"/>
<text text-anchor="middle" x="457" y="-2105.4" font-family="Times,serif" font-size="8.00">testing.tRunner</text>
<text text-anchor="end" x="483.328" y="-2095.8" font-family="Times,serif" font-size="8.00">0 (0.0%)</text>
<text text-anchor="end" x="483.328" y="-2086.2" font-family="Times,serif" font-size="8.00">of 4268 (99.4%)</text>
</g>
<!-- N4&#45;&gt;N5 -->
<g id="edge2" class="edge"><title>N4&#45;&gt;N5</title>
<path fill="none" stroke="black" stroke-width="2" d="M457,-2229.56C457,-2204.36 457,-2157.52 457,-2127.6"/>
<polygon fill="black" stroke="black" points="460.5,-2127.42 457,-2117.42 453.5,-2127.42 460.5,-2127.42"/>
<text text-anchor="middle" x="471" y="-2139.4" font-family="Times,serif" font-size="14.00">4268</text>
</g>
<!-- N5&#45;&gt;N1 -->
<g id="edge32" class="edge"><title>N5&#45;&gt;N1</title>
<path fill="none" stroke="black" stroke-width="2" d="M457,-2080.65C457,-2067.91 457,-2050.33 457,-2035.67"/>
<polygon fill="black" stroke="black" points="460.5,-2035.61 457,-2025.61 453.5,-2035.61 460.5,-2035.61"/>
<text text-anchor="middle" x="471" y="-2047.4" font-family="Times,serif" font-size="14.00">4268</text>
</g>
<!-- N7 -->
<g id="node8" class="node"><title>N7</title>
<polygon fill="none" stroke="black" points="590.449,-1543.3 323.551,-1543.3 323.551,-1488.7 590.449,-1488.7 590.449,-1543.3"/>
<text text-anchor="middle" x="457" y="-1526.4" font-family="Times,serif" font-size="13.00">github.com/reducedb/cityhash.unalignedLoad64</text>
<text text-anchor="end" x="582.633" y="-1510.8" font-family="Times,serif" font-size="13.00">43 (1.0%)</text>
<text text-anchor="end" x="582.633" y="-1495.2" font-family="Times,serif" font-size="13.00">of 4234 (98.6%)</text>
</g>
<!-- N6&#45;&gt;N7 -->
<g id="edge27" class="edge"><title>N6&#45;&gt;N7</title>
<path fill="none" stroke="black" stroke-width="2" d="M457,-1597.9C457,-1585.06 457,-1568.55 457,-1553.8"/>
<polygon fill="black" stroke="black" points="460.5,-1553.44 457,-1543.44 453.5,-1553.44 460.5,-1553.44"/>
<text text-anchor="middle" x="471" y="-1565.4" font-family="Times,serif" font-size="14.00">4232</text>
</g>
<!-- N8 -->
<g id="node9" class="node"><title>N8</title>
<polygon fill="none" stroke="black" points="517.297,-1433.56 396.703,-1433.56 396.703,-1382.44 517.297,-1382.44 517.297,-1433.56"/>
<text text-anchor="middle" x="457" y="-1417.68" font-family="Times,serif" font-size="12.10">encoding/binary.Read</text>
<text text-anchor="end" x="509.864" y="-1403.16" font-family="Times,serif" font-size="12.10">29 (0.7%)</text>
<text text-anchor="end" x="509.864" y="-1388.64" font-family="Times,serif" font-size="12.10">of 3069 (71.5%)</text>
</g>
<!-- N7&#45;&gt;N8 -->
<g id="edge9" class="edge"><title>N7&#45;&gt;N8</title>
<path fill="none" stroke="black" stroke-width="2" d="M457,-1488.53C457,-1475 457,-1458.38 457,-1443.84"/>
<polygon fill="black" stroke="black" points="460.5,-1443.68 457,-1433.68 453.5,-1443.68 460.5,-1443.68"/>
<text text-anchor="middle" x="471" y="-1455.4" font-family="Times,serif" font-size="14.00">3066</text>
</g>
<!-- N14 -->
<g id="node15" class="node"><title>N14</title>
<polygon fill="none" stroke="black" points="606.291,-1328.32 517.709,-1328.32 517.709,-1279.68 606.291,-1279.68 606.291,-1328.32"/>
<text text-anchor="middle" x="562" y="-1312.96" font-family="Times,serif" font-size="11.20">runtime.new</text>
<text text-anchor="end" x="598.859" y="-1299.52" font-family="Times,serif" font-size="11.20">18 (0.4%)</text>
<text text-anchor="end" x="598.859" y="-1286.08" font-family="Times,serif" font-size="11.20">of 1270 (29.6%)</text>
</g>
<!-- N7&#45;&gt;N14 -->
<g id="edge21" class="edge"><title>N7&#45;&gt;N14</title>
<path fill="none" stroke="black" stroke-width="1.54785" d="M484.88,-1488.37C498.984,-1473.54 515.329,-1454.06 526,-1434 542.098,-1403.74 551.594,-1365.55 556.753,-1338.6"/>
<polygon fill="black" stroke="black" points="560.243,-1338.97 558.584,-1328.5 553.356,-1337.72 560.243,-1338.97"/>
<text text-anchor="middle" x="559.744" y="-1402.4" font-family="Times,serif" font-size="14.00">1108</text>
</g>
<!-- N9 -->
<g id="node10" class="node"><title>N9</title>
<polygon fill="none" stroke="black" points="499.34,-1326.94 414.66,-1326.94 414.66,-1281.06 499.34,-1281.06 499.34,-1326.94"/>
<text text-anchor="middle" x="457" y="-1312.32" font-family="Times,serif" font-size="10.40">io.ReadFull</text>
<text text-anchor="end" x="491.227" y="-1299.84" font-family="Times,serif" font-size="10.40">10 (0.2%)</text>
<text text-anchor="end" x="491.227" y="-1287.36" font-family="Times,serif" font-size="10.40">of 2832 (65.9%)</text>
</g>
<!-- N8&#45;&gt;N9 -->
<g id="edge1" class="edge"><title>N8&#45;&gt;N9</title>
<path fill="none" stroke="black" stroke-width="2" d="M457,-1382.31C457,-1368.74 457,-1351.75 457,-1337.15"/>
<polygon fill="black" stroke="black" points="460.5,-1337.03 457,-1327.03 453.5,-1337.03 460.5,-1337.03"/>
<text text-anchor="middle" x="471" y="-1349.4" font-family="Times,serif" font-size="14.00">2831</text>
</g>
<!-- N8&#45;&gt;N14 -->
<g id="edge7" class="edge"><title>N8&#45;&gt;N14</title>
<path fill="none" stroke="black" d="M482.418,-1382.31C496.918,-1368.22 515.213,-1350.45 530.605,-1335.5"/>
<polygon fill="black" stroke="black" points="533.164,-1337.89 537.899,-1328.41 528.287,-1332.87 533.164,-1337.89"/>
<text text-anchor="middle" x="528.5" y="-1349.4" font-family="Times,serif" font-size="14.00">162</text>
</g>
<!-- N10 -->
<g id="node11" class="node"><title>N10</title>
<polygon fill="none" stroke="black" points="501.302,-1225.6 412.698,-1225.6 412.698,-1178.4 501.302,-1178.4 501.302,-1225.6"/>
<text text-anchor="middle" x="457" y="-1210.8" font-family="Times,serif" font-size="11.00">io.ReadAtLeast</text>
<text text-anchor="end" x="493.201" y="-1197.6" font-family="Times,serif" font-size="11.00">15 (0.3%)</text>
<text text-anchor="end" x="493.201" y="-1184.4" font-family="Times,serif" font-size="11.00">of 2819 (65.6%)</text>
</g>
<!-- N9&#45;&gt;N10 -->
<g id="edge30" class="edge"><title>N9&#45;&gt;N10</title>
<path fill="none" stroke="black" stroke-width="2" d="M457,-1280.81C457,-1267.66 457,-1250.74 457,-1236.05"/>
<polygon fill="black" stroke="black" points="460.5,-1235.82 457,-1225.82 453.5,-1235.82 460.5,-1235.82"/>
<text text-anchor="middle" x="471" y="-1247.4" font-family="Times,serif" font-size="14.00">2818</text>
</g>
<!-- N11 -->
<g id="node12" class="node"><title>N11</title>
<polygon fill="none" stroke="black" points="515.314,-1123.7 398.686,-1123.7 398.686,-1072.3 515.314,-1072.3 515.314,-1123.7"/>
<text text-anchor="middle" x="457" y="-1107.6" font-family="Times,serif" font-size="12.00">bytes.(*Buffer).Read</text>
<text text-anchor="end" x="507.543" y="-1093.2" font-family="Times,serif" font-size="12.00">28 (0.7%)</text>
<text text-anchor="end" x="507.543" y="-1078.8" font-family="Times,serif" font-size="12.00">of 2808 (65.4%)</text>
</g>
<!-- N10&#45;&gt;N11 -->
<g id="edge34" class="edge"><title>N10&#45;&gt;N11</title>
<path fill="none" stroke="black" stroke-width="2" d="M457,-1178.36C457,-1165.33 457,-1148.67 457,-1133.98"/>
<polygon fill="black" stroke="black" points="460.5,-1133.72 457,-1123.72 453.5,-1133.72 460.5,-1133.72"/>
<text text-anchor="middle" x="471" y="-1145.4" font-family="Times,serif" font-size="14.00">2804</text>
</g>
<!-- N12 -->
<g id="node13" class="node"><title>N12</title>
<polygon fill="none" stroke="black" points="501.295,-1009.96 412.705,-1009.96 412.705,-962.04 501.295,-962.04 501.295,-1009.96"/>
<text text-anchor="middle" x="457" y="-994.88" font-family="Times,serif" font-size="11.10">runtime.copy</text>
<text text-anchor="end" x="493.53" y="-981.56" font-family="Times,serif" font-size="11.10">17 (0.4%)</text>
<text text-anchor="end" x="493.53" y="-968.24" font-family="Times,serif" font-size="11.10">of 2782 (64.8%)</text>
</g>
<!-- N11&#45;&gt;N12 -->
<g id="edge13" class="edge"><title>N11&#45;&gt;N12</title>
<path fill="none" stroke="black" stroke-width="2" d="M457,-1072.31C457,-1057.04 457,-1037.22 457,-1020.54"/>
<polygon fill="black" stroke="black" points="460.5,-1020.1 457,-1010.1 453.5,-1020.1 460.5,-1020.1"/>
<text text-anchor="middle" x="471" y="-1039.4" font-family="Times,serif" font-size="14.00">2780</text>
</g>
<!-- N13 -->
<g id="node14" class="node"><title>N13</title>
<polygon fill="none" stroke="black" points="647.004,-899.941 266.996,-899.941 266.996,-776.059 647.004,-776.059 647.004,-899.941"/>
<text text-anchor="middle" x="457" y="-847.62" font-family="Times,serif" font-size="48.10">runtime.memmove</text>
<text text-anchor="end" x="639.336" y="-789.9" font-family="Times,serif" font-size="48.10">2766 (64.4%)</text>
</g>
<!-- N12&#45;&gt;N13 -->
<g id="edge33" class="edge"><title>N12&#45;&gt;N13</title>
<path fill="none" stroke="black" stroke-width="2" d="M457,-961.866C457,-947.689 457,-928.706 457,-909.909"/>
<polygon fill="black" stroke="black" points="460.5,-909.82 457,-899.82 453.5,-909.82 460.5,-909.82"/>
<text text-anchor="middle" x="471" y="-921.4" font-family="Times,serif" font-size="14.00">2765</text>
</g>
<!-- N15 -->
<g id="node16" class="node"><title>N15</title>
<polygon fill="none" stroke="black" points="796.143,-1017.94 671.857,-1017.94 671.857,-954.058 796.143,-954.058 796.143,-1017.94"/>
<text text-anchor="middle" x="734" y="-998.32" font-family="Times,serif" font-size="15.40">runtime.mallocgc</text>
<text text-anchor="end" x="788.096" y="-979.84" font-family="Times,serif" font-size="15.40">95 (2.2%)</text>
<text text-anchor="end" x="788.096" y="-961.36" font-family="Times,serif" font-size="15.40">of 1223 (28.5%)</text>
</g>
<!-- N14&#45;&gt;N15 -->
<g id="edge28" class="edge"><title>N14&#45;&gt;N15</title>
<path fill="none" stroke="black" stroke-width="1.68754" d="M557.237,-1279.77C549.481,-1235.42 538.903,-1137.26 581,-1072 599.808,-1042.84 632.278,-1022.78 662.48,-1009.51"/>
<polygon fill="black" stroke="black" points="663.902,-1012.71 671.763,-1005.61 661.188,-1006.26 663.902,-1012.71"/>
<text text-anchor="middle" x="568" y="-1145.4" font-family="Times,serif" font-size="14.00">1208</text>
</g>
<!-- N30 -->
<g id="node31" class="node"><title>N30</title>
<polygon fill="none" stroke="black" points="669.375,-1224.22 590.625,-1224.22 590.625,-1179.78 669.375,-1179.78 669.375,-1224.22"/>
<text text-anchor="middle" x="630" y="-1210.16" font-family="Times,serif" font-size="10.20">runtime.settype</text>
<text text-anchor="end" x="661.584" y="-1197.92" font-family="Times,serif" font-size="10.20">8 (0.2%)</text>
<text text-anchor="end" x="661.584" y="-1185.68" font-family="Times,serif" font-size="10.20">of 46 (1.1%)</text>
</g>
<!-- N14&#45;&gt;N30 -->
<g id="edge4" class="edge"><title>N14&#45;&gt;N30</title>
<path fill="none" stroke="black" d="M577.771,-1279.81C587.283,-1265.82 599.496,-1247.86 609.72,-1232.82"/>
<polygon fill="black" stroke="black" points="612.746,-1234.6 615.475,-1224.36 606.957,-1230.66 612.746,-1234.6"/>
<text text-anchor="middle" x="609" y="-1247.4" font-family="Times,serif" font-size="14.00">44</text>
</g>
<!-- N17 -->
<g id="node18" class="node"><title>N17</title>
<polygon fill="none" stroke="black" points="802.409,-865.08 665.591,-865.08 665.591,-810.92 802.409,-810.92 802.409,-865.08"/>
<text text-anchor="middle" x="734" y="-848.24" font-family="Times,serif" font-size="12.80">runtime.MCache_Alloc</text>
<text text-anchor="end" x="794.606" y="-832.88" font-family="Times,serif" font-size="12.80">40 (0.9%)</text>
<text text-anchor="end" x="794.606" y="-817.52" font-family="Times,serif" font-size="12.80">of 595 (13.9%)</text>
</g>
<!-- N15&#45;&gt;N17 -->
<g id="edge14" class="edge"><title>N15&#45;&gt;N17</title>
<path fill="none" stroke="black" d="M734,-954.037C734,-931.142 734,-899.878 734,-875.721"/>
<polygon fill="black" stroke="black" points="737.5,-875.514 734,-865.514 730.5,-875.514 737.5,-875.514"/>
<text text-anchor="middle" x="744.5" y="-921.4" font-family="Times,serif" font-size="14.00">592</text>
</g>
<!-- N21 -->
<g id="node22" class="node"><title>N21</title>
<polygon fill="none" stroke="black" points="885.273,-856.301 820.727,-856.301 820.727,-819.699 885.273,-819.699 885.273,-856.301"/>
<text text-anchor="middle" x="853" y="-844.4" font-family="Times,serif" font-size="8.00">runtime.gc</text>
<text text-anchor="end" x="877.182" y="-834.8" font-family="Times,serif" font-size="8.00">0 (0.0%)</text>
<text text-anchor="end" x="877.182" y="-825.2" font-family="Times,serif" font-size="8.00">of 485 (11.3%)</text>
</g>
<!-- N15&#45;&gt;N21 -->
<g id="edge31" class="edge"><title>N15&#45;&gt;N21</title>
<path fill="none" stroke="black" d="M763.919,-953.988C778.623,-938.253 796.295,-918.58 811,-900 819.815,-888.862 828.843,-875.978 836.259,-864.929"/>
<polygon fill="black" stroke="black" points="839.219,-866.798 841.826,-856.529 833.384,-862.931 839.219,-866.798"/>
<text text-anchor="middle" x="805.5" y="-921.4" font-family="Times,serif" font-size="14.00">485</text>
</g>
<!-- N33 -->
<g id="node34" class="node"><title>N33</title>
<polygon fill="none" stroke="black" points="1030.25,-856.523 903.754,-856.523 903.754,-819.477 1030.25,-819.477 1030.25,-856.523"/>
<text text-anchor="middle" x="967" y="-840.46" font-family="Times,serif" font-size="12.30">runtime.markallocated</text>
<text text-anchor="end" x="1022.5" y="-825.7" font-family="Times,serif" font-size="12.30">32 (0.7%)</text>
</g>
<!-- N15&#45;&gt;N33 -->
<g id="edge18" class="edge"><title>N15&#45;&gt;N33</title>
<path fill="none" stroke="black" d="M796.125,-955.784C826.496,-940.563 863.074,-920.806 894,-900 910.266,-889.057 927.143,-875.147 940.567,-863.374"/>
<polygon fill="black" stroke="black" points="942.894,-865.989 948.041,-856.728 938.242,-860.758 942.894,-865.989"/>
<text text-anchor="middle" x="871" y="-921.4" font-family="Times,serif" font-size="14.00">30</text>
</g>
<!-- N16&#45;&gt;N6 -->
<g id="edge26" class="edge"><title>N16&#45;&gt;N6</title>
<path fill="none" stroke="black" stroke-width="1.40116" d="M588.61,-1698.57C564.244,-1684.4 530.893,-1664.99 503.861,-1649.26"/>
<polygon fill="black" stroke="black" points="505.362,-1646.09 494.958,-1644.08 501.841,-1652.14 505.362,-1646.09"/>
<text text-anchor="middle" x="568" y="-1665.4" font-family="Times,serif" font-size="14.00">1003</text>
</g>
<!-- N18 -->
<g id="node19" class="node"><title>N18</title>
<polygon fill="none" stroke="black" points="806.35,-722.321 661.65,-722.321 661.65,-673.679 806.35,-673.679 806.35,-722.321"/>
<text text-anchor="middle" x="734" y="-706.96" font-family="Times,serif" font-size="11.20">runtime.MCentral_AllocList</text>
<text text-anchor="end" x="798.233" y="-693.52" font-family="Times,serif" font-size="11.20">18 (0.4%)</text>
<text text-anchor="end" x="798.233" y="-680.08" font-family="Times,serif" font-size="11.20">of 549 (12.8%)</text>
</g>
<!-- N17&#45;&gt;N18 -->
<g id="edge5" class="edge"><title>N17&#45;&gt;N18</title>
<path fill="none" stroke="black" d="M734,-810.718C734,-788.511 734,-756.57 734,-732.525"/>
<polygon fill="black" stroke="black" points="737.5,-732.426 734,-722.426 730.5,-732.426 737.5,-732.426"/>
<text text-anchor="middle" x="744.5" y="-743.4" font-family="Times,serif" font-size="14.00">549</text>
</g>
<!-- N19 -->
<g id="node20" class="node"><title>N19</title>
<polygon fill="none" stroke="black" points="776.061,-619.58 691.939,-619.58 691.939,-574.42 776.061,-574.42 776.061,-619.58"/>
<text text-anchor="middle" x="734" y="-605.24" font-family="Times,serif" font-size="10.30">MCentral_Grow</text>
<text text-anchor="end" x="768.041" y="-592.88" font-family="Times,serif" font-size="10.30">9 (0.2%)</text>
<text text-anchor="end" x="768.041" y="-580.52" font-family="Times,serif" font-size="10.30">of 526 (12.2%)</text>
</g>
<!-- N18&#45;&gt;N19 -->
<g id="edge12" class="edge"><title>N18&#45;&gt;N19</title>
<path fill="none" stroke="black" d="M734,-673.789C734,-660.764 734,-644.318 734,-630.077"/>
<polygon fill="black" stroke="black" points="737.5,-629.71 734,-619.71 730.5,-629.71 737.5,-629.71"/>
<text text-anchor="middle" x="744.5" y="-641.4" font-family="Times,serif" font-size="14.00">525</text>
</g>
<!-- N24 -->
<g id="node25" class="node"><title>N24</title>
<polygon fill="none" stroke="black" points="647.988,-493.301 560.012,-493.301 560.012,-456.699 647.988,-456.699 647.988,-493.301"/>
<text text-anchor="middle" x="604" y="-481.4" font-family="Times,serif" font-size="8.00">runtime.MHeap_Alloc</text>
<text text-anchor="end" x="640.324" y="-471.8" font-family="Times,serif" font-size="8.00">0 (0.0%)</text>
<text text-anchor="end" x="640.324" y="-462.2" font-family="Times,serif" font-size="8.00">of 392 (9.1%)</text>
</g>
<!-- N19&#45;&gt;N24 -->
<g id="edge8" class="edge"><title>N19&#45;&gt;N24</title>
<path fill="none" stroke="black" d="M710.458,-574.269C687.976,-553.516 654.137,-522.28 630.669,-500.618"/>
<polygon fill="black" stroke="black" points="632.861,-497.878 623.139,-493.667 628.113,-503.022 632.861,-497.878"/>
<text text-anchor="middle" x="698.5" y="-541.4" font-family="Times,serif" font-size="14.00">392</text>
</g>
<!-- N26 -->
<g id="node27" class="node"><title>N26</title>
<polygon fill="none" stroke="black" points="801.196,-498.602 666.804,-498.602 666.804,-451.398 801.196,-451.398 801.196,-498.602"/>
<text text-anchor="middle" x="734" y="-478.3" font-family="Times,serif" font-size="16.50">runtime.markspan</text>
<text text-anchor="end" x="793.796" y="-458.5" font-family="Times,serif" font-size="16.50">123 (2.9%)</text>
</g>
<!-- N19&#45;&gt;N26 -->
<g id="edge36" class="edge"><title>N19&#45;&gt;N26</title>
<path fill="none" stroke="black" d="M734,-574.269C734,-556.011 734,-529.639 734,-508.81"/>
<polygon fill="black" stroke="black" points="737.5,-508.794 734,-498.794 730.5,-508.794 737.5,-508.794"/>
<text text-anchor="middle" x="744.5" y="-541.4" font-family="Times,serif" font-size="14.00">123</text>
</g>
<!-- N20 -->
<g id="node21" class="node"><title>N20</title>
<polygon fill="none" stroke="black" points="888.273,-716.301 823.727,-716.301 823.727,-679.699 888.273,-679.699 888.273,-716.301"/>
<text text-anchor="middle" x="856" y="-704.4" font-family="Times,serif" font-size="8.00">gc</text>
<text text-anchor="end" x="880.182" y="-694.8" font-family="Times,serif" font-size="8.00">0 (0.0%)</text>
<text text-anchor="end" x="880.182" y="-685.2" font-family="Times,serif" font-size="8.00">of 485 (11.3%)</text>
</g>
<!-- N22 -->
<g id="node23" class="node"><title>N22</title>
<polygon fill="none" stroke="black" points="923.402,-616.681 848.598,-616.681 848.598,-577.319 923.402,-577.319 923.402,-616.681"/>
<text text-anchor="middle" x="886" y="-604.04" font-family="Times,serif" font-size="8.80">runtime.parfordo</text>
<text text-anchor="end" x="915.934" y="-593.48" font-family="Times,serif" font-size="8.80">1 (0.0%)</text>
<text text-anchor="end" x="915.934" y="-582.92" font-family="Times,serif" font-size="8.80">of 465 (10.8%)</text>
</g>
<!-- N20&#45;&gt;N22 -->
<g id="edge15" class="edge"><title>N20&#45;&gt;N22</title>
<path fill="none" stroke="black" d="M861.363,-679.301C865.774,-664.747 872.112,-643.832 877.255,-626.86"/>
<polygon fill="black" stroke="black" points="880.724,-627.48 880.274,-616.894 874.025,-625.45 880.724,-627.48"/>
<text text-anchor="middle" x="883.5" y="-641.4" font-family="Times,serif" font-size="14.00">465</text>
</g>
<!-- N21&#45;&gt;N20 -->
<g id="edge22" class="edge"><title>N21&#45;&gt;N20</title>
<path fill="none" stroke="black" d="M853.38,-819.522C853.889,-796.088 854.799,-754.233 855.401,-726.539"/>
<polygon fill="black" stroke="black" points="858.905,-726.41 855.623,-716.336 851.907,-726.257 858.905,-726.41"/>
<text text-anchor="middle" x="865.5" y="-743.4" font-family="Times,serif" font-size="14.00">485</text>
</g>
<!-- N23 -->
<g id="node24" class="node"><title>N23</title>
<polygon fill="none" stroke="black" points="974.003,-520.08 819.997,-520.08 819.997,-429.92 974.003,-429.92 974.003,-520.08"/>
<text text-anchor="middle" x="897" y="-493.24" font-family="Times,serif" font-size="22.80">sweepspan</text>
<text text-anchor="end" x="966.335" y="-465.88" font-family="Times,serif" font-size="22.80">374 (8.7%)</text>
<text text-anchor="end" x="966.335" y="-438.52" font-family="Times,serif" font-size="22.80">of 463 (10.8%)</text>
</g>
<!-- N22&#45;&gt;N23 -->
<g id="edge10" class="edge"><title>N22&#45;&gt;N23</title>
<path fill="none" stroke="black" d="M887.719,-577.25C888.875,-564.64 890.462,-547.319 891.998,-530.567"/>
<polygon fill="black" stroke="black" points="895.516,-530.535 892.943,-520.257 888.545,-529.896 895.516,-530.535"/>
<text text-anchor="middle" x="901.5" y="-541.4" font-family="Times,serif" font-size="14.00">463</text>
</g>
<!-- N27 -->
<g id="node28" class="node"><title>N27</title>
<polygon fill="none" stroke="black" points="961.165,-356.641 832.835,-356.641 832.835,-313.359 961.165,-313.359 961.165,-356.641"/>
<text text-anchor="middle" x="897" y="-342.92" font-family="Times,serif" font-size="9.90">runtime.MCentral_FreeSpan</text>
<text text-anchor="end" x="953.775" y="-331.04" font-family="Times,serif" font-size="9.90">6 (0.1%)</text>
<text text-anchor="end" x="953.775" y="-319.16" font-family="Times,serif" font-size="9.90">of 87 (2.0%)</text>
</g>
<!-- N23&#45;&gt;N27 -->
<g id="edge37" class="edge"><title>N23&#45;&gt;N27</title>
<path fill="none" stroke="black" d="M897,-429.957C897,-409.515 897,-385.697 897,-367.157"/>
<polygon fill="black" stroke="black" points="900.5,-366.916 897,-356.916 893.5,-366.916 900.5,-366.916"/>
<text text-anchor="middle" x="904" y="-397.4" font-family="Times,serif" font-size="14.00">86</text>
</g>
<!-- N25 -->
<g id="node26" class="node"><title>N25</title>
<polygon fill="none" stroke="black" points="700.25,-375.58 507.75,-375.58 507.75,-294.42 700.25,-294.42 700.25,-375.58"/>
<text text-anchor="middle" x="604" y="-351.24" font-family="Times,serif" font-size="20.30">MHeap_AllocLocked</text>
<text text-anchor="end" x="692.5" y="-326.88" font-family="Times,serif" font-size="20.30">259 (6.0%)</text>
<text text-anchor="end" x="692.5" y="-302.52" font-family="Times,serif" font-size="20.30">of 383 (8.9%)</text>
</g>
<!-- N24&#45;&gt;N25 -->
<g id="edge6" class="edge"><title>N24&#45;&gt;N25</title>
<path fill="none" stroke="black" d="M604,-456.522C604,-438.817 604,-410.595 604,-385.911"/>
<polygon fill="black" stroke="black" points="607.5,-385.59 604,-375.59 600.5,-385.59 607.5,-385.59"/>
<text text-anchor="middle" x="614.5" y="-397.4" font-family="Times,serif" font-size="14.00">383</text>
</g>
<!-- N28 -->
<g id="node29" class="node"><title>N28</title>
<polygon fill="none" stroke="black" points="671.114,-239.54 536.886,-239.54 536.886,-196.46 671.114,-196.46 671.114,-239.54"/>
<text text-anchor="middle" x="604" y="-220.92" font-family="Times,serif" font-size="14.60">runtime.MSpan_Init</text>
<text text-anchor="end" x="663.409" y="-203.4" font-family="Times,serif" font-size="14.60">74 (1.7%)</text>
</g>
<!-- N25&#45;&gt;N28 -->
<g id="edge23" class="edge"><title>N25&#45;&gt;N28</title>
<path fill="none" stroke="black" d="M604,-294.424C604,-279.864 604,-263.601 604,-249.914"/>
<polygon fill="black" stroke="black" points="607.5,-249.572 604,-239.572 600.5,-249.572 607.5,-249.572"/>
<text text-anchor="middle" x="611" y="-261.4" font-family="Times,serif" font-size="14.00">74</text>
</g>
<!-- N29 -->
<g id="node30" class="node"><title>N29</title>
<polygon fill="none" stroke="black" points="840.211,-141.92 723.789,-141.92 723.789,-90.0799 840.211,-90.0799 840.211,-141.92"/>
<text text-anchor="middle" x="782" y="-125.76" font-family="Times,serif" font-size="12.20">MHeap_FreeLocked</text>
<text text-anchor="end" x="832.474" y="-111.12" font-family="Times,serif" font-size="12.20">31 (0.7%)</text>
<text text-anchor="end" x="832.474" y="-96.48" font-family="Times,serif" font-size="12.20">of 56 (1.3%)</text>
</g>
<!-- N25&#45;&gt;N29 -->
<g id="edge17" class="edge"><title>N25&#45;&gt;N29</title>
<path fill="none" stroke="black" d="M635.956,-294.321C658.281,-266.676 688.834,-228.99 716,-196 728.441,-180.892 742.315,-164.254 754.12,-150.159"/>
<polygon fill="black" stroke="black" points="757.062,-152.097 760.805,-142.185 751.698,-147.599 757.062,-152.097"/>
<text text-anchor="middle" x="723" y="-212.4" font-family="Times,serif" font-size="14.00">24</text>
</g>
<!-- N31 -->
<g id="node32" class="node"><title>N31</title>
<polygon fill="none" stroke="black" points="824.317,-236.301 739.683,-236.301 739.683,-199.699 824.317,-199.699 824.317,-236.301"/>
<text text-anchor="middle" x="782" y="-224.4" font-family="Times,serif" font-size="8.00">runtime.MHeap_Free</text>
<text text-anchor="end" x="816.545" y="-214.8" font-family="Times,serif" font-size="8.00">0 (0.0%)</text>
<text text-anchor="end" x="816.545" y="-205.2" font-family="Times,serif" font-size="8.00">of 39 (0.9%)</text>
</g>
<!-- N27&#45;&gt;N31 -->
<g id="edge24" class="edge"><title>N27&#45;&gt;N31</title>
<path fill="none" stroke="black" d="M876.174,-313.174C856.69,-293.69 827.562,-264.562 806.867,-243.867"/>
<polygon fill="black" stroke="black" points="809.203,-241.253 799.657,-236.657 804.253,-246.203 809.203,-241.253"/>
<text text-anchor="middle" x="843" y="-261.4" font-family="Times,serif" font-size="14.00">39</text>
</g>
<!-- N34 -->
<g id="node35" class="node"><title>N34</title>
<polygon fill="none" stroke="black" points="997.241,-236.301 842.759,-236.301 842.759,-199.699 997.241,-199.699 997.241,-236.301"/>
<text text-anchor="middle" x="920" y="-220.4" font-family="Times,serif" font-size="12.00">runtime.MSpanList_Remove</text>
<text text-anchor="end" x="989.826" y="-206" font-family="Times,serif" font-size="12.00">27 (0.6%)</text>
</g>
<!-- N27&#45;&gt;N34 -->
<g id="edge19" class="edge"><title>N27&#45;&gt;N34</title>
<path fill="none" stroke="black" d="M901.165,-313.174C904.891,-294.544 910.38,-267.099 914.473,-246.637"/>
<polygon fill="black" stroke="black" points="917.939,-247.149 916.469,-236.657 911.075,-245.776 917.939,-247.149"/>
<text text-anchor="middle" x="918" y="-261.4" font-family="Times,serif" font-size="14.00">25</text>
</g>
<!-- N35 -->
<g id="node36" class="node"><title>N35</title>
<polygon fill="none" stroke="black" points="831.109,-35.8404 732.891,-35.8404 732.891,-0.159644 831.109,-0.159644 831.109,-35.8404"/>
<text text-anchor="middle" x="782" y="-20.32" font-family="Times,serif" font-size="11.60">runtime.nanotime</text>
<text text-anchor="end" x="823.073" y="-6.4" font-family="Times,serif" font-size="11.60">22 (0.5%)</text>
</g>
<!-- N29&#45;&gt;N35 -->
<g id="edge16" class="edge"><title>N29&#45;&gt;N35</title>
<path fill="none" stroke="black" d="M782,-90.0277C782,-76.6137 782,-60.0552 782,-46.3013"/>
<polygon fill="black" stroke="black" points="785.5,-45.9858 782,-35.9858 778.5,-45.9859 785.5,-45.9858"/>
<text text-anchor="middle" x="789" y="-57.4" font-family="Times,serif" font-size="14.00">22</text>
</g>
<!-- N32 -->
<g id="node33" class="node"><title>N32</title>
<polygon fill="none" stroke="black" points="709.245,-1123.7 590.755,-1123.7 590.755,-1072.3 709.245,-1072.3 709.245,-1123.7"/>
<text text-anchor="middle" x="650" y="-1107.6" font-family="Times,serif" font-size="12.00">runtime.settype_flush</text>
<text text-anchor="end" x="701.829" y="-1093.2" font-family="Times,serif" font-size="12.00">27 (0.6%)</text>
<text text-anchor="end" x="701.829" y="-1078.8" font-family="Times,serif" font-size="12.00">of 38 (0.9%)</text>
</g>
<!-- N30&#45;&gt;N32 -->
<g id="edge35" class="edge"><title>N30&#45;&gt;N32</title>
<path fill="none" stroke="black" d="M634.241,-1179.37C636.831,-1166.16 640.203,-1148.96 643.163,-1133.87"/>
<polygon fill="black" stroke="black" points="646.642,-1134.32 645.131,-1123.83 639.773,-1132.97 646.642,-1134.32"/>
<text text-anchor="middle" x="648" y="-1145.4" font-family="Times,serif" font-size="14.00">38</text>
</g>
<!-- N31&#45;&gt;N29 -->
<g id="edge3" class="edge"><title>N31&#45;&gt;N29</title>
<path fill="none" stroke="black" d="M782,-199.581C782,-186.545 782,-168.274 782,-152.232"/>
<polygon fill="black" stroke="black" points="785.5,-152.089 782,-142.089 778.5,-152.089 785.5,-152.089"/>
<text text-anchor="middle" x="789" y="-163.4" font-family="Times,serif" font-size="14.00">32</text>
</g>
<!-- N32&#45;&gt;N15 -->
<g id="edge25" class="edge"><title>N32&#45;&gt;N15</title>
<path fill="none" stroke="black" d="M668.851,-1072.31C679.218,-1058.74 692.32,-1041.58 704.052,-1026.22"/>
<polygon fill="black" stroke="black" points="707.116,-1027.97 710.403,-1017.9 701.552,-1023.72 707.116,-1027.97"/>
<text text-anchor="middle" x="700.744" y="-1039.4" font-family="Times,serif" font-size="14.00">11</text>
</g>
</g>
</g></svg>
